<svg xmlns="http://www.w3.org/2000/svg" width="24" height="25" viewBox="0 0 24 25" fill="none">
    <path
        d="M18.7499 6.5V16.25C18.7499 16.4489 18.6709 16.6397 18.5303 16.7803C18.3896 16.921 18.1988 17 17.9999 17C17.801 17 17.6103 16.921 17.4696 16.7803C17.3289 16.6397 17.2499 16.4489 17.2499 16.25V8.31031L6.53055 19.0306C6.38982 19.1714 6.19895 19.2504 5.99993 19.2504C5.80091 19.2504 5.61003 19.1714 5.4693 19.0306C5.32857 18.8899 5.24951 18.699 5.24951 18.5C5.24951 18.301 5.32857 18.1101 5.4693 17.9694L16.1896 7.25H8.24993C8.05102 7.25 7.86025 7.17098 7.7196 7.03033C7.57895 6.88968 7.49993 6.69891 7.49993 6.5C7.49993 6.30109 7.57895 6.11032 7.7196 5.96967C7.86025 5.82902 8.05102 5.75 8.24993 5.75H17.9999C18.1988 5.75 18.3896 5.82902 18.5303 5.96967C18.6709 6.11032 18.7499 6.30109 18.7499 6.5Z"
        fill="#D0D00B" />
</svg>